<?xml version="1.0" encoding="utf-8"?>
<!-- Generator: Adobe Illustrator 23.0.1, SVG Export Plug-In . SVG Version: 6.00 Build 0)  -->
<svg version="1.1" id="Calque_1" xmlns="http://www.w3.org/2000/svg" xmlns:xlink="http://www.w3.org/1999/xlink" x="0px" y="0px"
	 viewBox="0 0 382 252" style="enable-background:new 0 0 382 252;" xml:space="preserve">
<title>a1</title>
<g>
	<path d="M2.3,11.7C0.8,14.8,0,18.2,0,21.7v208.6c-0.1,3.1,0.6,6.1,1.8,9L106.4,104L2.3,11.7z"/>
	<path d="M216,156.6c-14.4,12.7-36,12.7-50.4-0.1l-47.3-41.9L13.1,250.4c2.7,1.1,5.6,1.6,8.6,1.6h338.6c3.1,0.1,6.3-0.6,9.1-1.8
		L262.5,115.5L216,156.6z"/>
	<path d="M205.4,144.7L367.8,1.2c-2.4-0.8-5-1.2-7.5-1.2H21.7c-2.6,0-5.1,0.4-7.5,1.2l162,143.5C184.5,152,197,152,205.4,144.7z"/>
	<path d="M274.5,104.8l106,133.8c1-2.7,1.6-5.5,1.5-8.4V21.7c0.1-3.5-0.7-6.9-2.3-10L274.5,104.8z"/>
</g>
</svg>
